<?xml version="1.0" encoding="UTF-8"?>
<svg xmlns="http://www.w3.org/2000/svg" xmlns:xlink="http://www.w3.org/1999/xlink" fill="none" height="18.0" preserveAspectRatio="xMidYMid meet" style="fill: none;" version="1.0" viewBox="1.9 3.0 20.1 18.0" width="20.1" zoomAndPan="magnify">
  <g id="change1_1">
    <path clip-rule="evenodd" d="M3 13H15V11H3V13Z" fill="#fff" fill-rule="evenodd" />
  </g>
  <g id="change1_2">
    <path clip-rule="evenodd" d="M5.79282 7.79291L2.29282 11.2929C1.90229 11.6834 1.90229 12.3166 2.29282 12.7071L5.79282 16.2071L7.20703 14.7929L4.41414 12L7.20703 9.20712L5.79282 7.79291Z" fill="#fff" fill-rule="evenodd" />
  </g>
  <g id="change1_3">
    <path clip-rule="evenodd" d="M8 4C8 3.44772 8.44772 3 9 3H21C21.5523 3 22 3.44772 22 4V20C22 20.5523 21.5523 21 21 21H9C8.44772 21 8 20.5523 8 20V17H10V19H20V5H10V7H8V4Z" fill="#fff" fill-rule="evenodd" />
  </g>
</svg>